<svg width="35" height="35" viewBox="0 0 35 35" fill="none" xmlns="http://www.w3.org/2000/svg">
<path d="M0.0541455 26.93C0.600445 31.491 6.09707 34.9301 12.8399 34.9301C18.9019 34.9301 24.0514 32.1325 25.3643 28.1266L25.3655 28.1246C25.5709 27.5062 25.6769 26.8596 25.6798 26.2081C25.6767 26.0118 25.663 25.816 25.6388 25.6213L25.6319 25.5592V25.5589C25.3931 23.8325 24.5379 22.2512 23.2236 21.1065C24.72 21.765 26.3324 22.1187 27.967 22.1475C29.3241 22.1728 30.6635 21.8366 31.8475 21.1734L31.8481 21.1726C32.3026 20.9144 32.7216 20.5981 33.094 20.2313C33.3742 19.946 33.6244 19.6331 33.8415 19.2974L33.8421 19.2966C36.3037 15.5924 34.7286 9.36742 30.1779 4.81692C25.9639 0.602976 20.1703 -1.11116 16.4007 0.74176C15.7945 1.035 15.2408 1.42599 14.7618 1.89905C14.5871 2.07801 14.4241 2.26781 14.2733 2.46758L14.273 2.46786C11.4689 6.0788 12.9653 12.6005 17.6799 17.3151C18.1459 17.7796 18.636 18.2194 19.1478 18.6326C17.1336 17.8663 14.9952 17.4776 12.8399 17.4861C6.81977 17.4861 1.54087 20.3778 0.287826 24.3617C0.0986018 24.9588 0.00142488 25.5814 0 26.2081C0.00341972 26.4495 0.0213732 26.6903 0.0538605 26.9297L0.0541455 26.93ZM12.8399 33.7628C7.1626 33.7628 2.31657 31.0672 1.35193 27.5059C1.37501 27.5082 1.39866 27.5107 1.42118 27.513C1.62978 27.5367 1.82841 27.5626 2.01393 27.5922C2.041 27.5965 2.06608 27.6014 2.09287 27.6059C2.26613 27.6347 2.43142 27.6658 2.59072 27.6988C2.61722 27.7042 2.64487 27.7094 2.67137 27.7151C2.84178 27.7515 3.00622 27.7897 3.1678 27.8293C3.20285 27.8379 3.23762 27.8467 3.2721 27.8553C3.4277 27.8943 3.58158 27.9336 3.7369 27.9741C5.24157 28.401 6.80096 28.6036 8.36463 28.5751C9.92658 28.6039 11.4843 28.4007 12.9867 27.9727C14.3927 27.5689 15.8515 27.3785 17.314 27.4079C18.7771 27.3785 20.2365 27.5689 21.6431 27.9724C21.7893 28.0103 21.9375 28.0485 22.0879 28.0864C22.1227 28.0952 22.1575 28.1038 22.1925 28.1126C22.3521 28.1522 22.516 28.191 22.6864 28.2283C22.7072 28.2329 22.7294 28.2371 22.7505 28.2417C22.9081 28.2753 23.0725 28.3075 23.2441 28.338C23.2746 28.3434 23.3037 28.3491 23.3344 28.3543C23.5205 28.3862 23.7172 28.415 23.9249 28.4412C23.9434 28.4437 23.9588 28.4469 23.9776 28.4492C22.4692 31.5668 17.9484 33.7628 12.8399 33.7628ZM29.3526 5.6425C33.1761 9.46631 34.7768 14.6982 33.2465 17.978C33.2308 17.9597 33.2149 17.9415 33.1997 17.9233C33.045 17.7412 32.9017 17.5653 32.774 17.3983C32.7626 17.3835 32.7529 17.3696 32.7418 17.355C32.6201 17.1943 32.509 17.0393 32.4049 16.8882C32.3881 16.8637 32.3705 16.8387 32.3539 16.8144C32.2479 16.658 32.1488 16.5049 32.0533 16.3533C32.035 16.3243 32.0171 16.2955 31.9989 16.2664C31.9068 16.1188 31.8168 15.9718 31.7264 15.8233C30.9447 14.4696 29.967 13.2394 28.8254 12.1722C27.7248 11.0645 26.4655 10.1263 25.0893 9.3888C23.7995 8.70001 22.6206 7.822 21.5915 6.78354C20.522 5.7867 19.6078 4.63511 18.8794 3.36753C18.8053 3.24528 18.7298 3.1216 18.6528 2.99706L18.5939 2.90217C18.5112 2.76937 18.426 2.63486 18.3348 2.49664C18.3248 2.48126 18.3137 2.4653 18.3035 2.44991C18.2211 2.32566 18.1333 2.19827 18.0401 2.06747C18.0185 2.03726 17.9977 2.00734 17.9755 1.97656C17.8714 1.83293 17.7603 1.68503 17.6395 1.53171C17.6315 1.52117 17.6249 1.51177 17.6167 1.50151C20.9517 0.379555 25.7425 2.03213 29.3526 5.6425ZM15.5871 2.72434C15.8675 2.44649 16.1812 2.20426 16.5209 2.00364C16.5309 2.01532 16.5392 2.02643 16.5489 2.03812C16.6777 2.19485 16.7948 2.34475 16.9039 2.49009C16.9216 2.51374 16.9407 2.53825 16.9581 2.56162C17.0672 2.70981 17.1675 2.85315 17.2624 2.99336C17.2813 3.02129 17.3001 3.04893 17.3183 3.07657C17.4109 3.21564 17.4995 3.35271 17.5842 3.48836C17.5996 3.51287 17.6147 3.53738 17.6298 3.56189C17.7147 3.69896 17.7979 3.83518 17.8817 3.97339C18.662 5.3256 19.6383 6.55499 20.7788 7.62137C21.8793 8.72879 23.1387 9.66693 24.5148 10.4047C25.8046 11.0932 26.9836 11.9713 28.0126 13.01C29.0835 14.008 29.9992 15.1607 30.7293 16.4297C30.7894 16.5283 30.8498 16.6275 30.9111 16.7275C30.9319 16.7611 30.9536 16.7956 30.9747 16.8295C31.0177 16.8988 31.0607 16.968 31.1052 17.0381C31.1314 17.0795 31.159 17.1213 31.1858 17.163C31.2277 17.2282 31.2702 17.2935 31.3146 17.3602C31.3443 17.4046 31.3753 17.4502 31.4064 17.4955C31.4506 17.5605 31.4962 17.6263 31.5432 17.693C31.5774 17.7412 31.6127 17.7902 31.6483 17.8395C31.6968 17.9059 31.7467 17.9734 31.7985 18.0418C31.8376 18.0934 31.8775 18.1458 31.9185 18.1986C31.9724 18.2678 32.0294 18.3388 32.0872 18.4103C32.1314 18.465 32.1755 18.5197 32.2226 18.5759C32.2836 18.6494 32.3491 18.7252 32.4149 18.8013C32.4656 18.8597 32.5149 18.9176 32.5682 18.9774C32.5813 18.9922 32.5925 19.0059 32.6059 19.0207C32.5016 19.1558 32.389 19.2846 32.2687 19.406C32.0801 19.5929 31.8749 19.7628 31.6557 19.9135L31.6355 19.8913C31.5982 19.8489 31.5648 19.8087 31.5292 19.7674C31.4617 19.689 31.3944 19.6112 31.3323 19.536C31.2938 19.4892 31.2579 19.4442 31.2212 19.3986C31.1673 19.3313 31.114 19.2647 31.0639 19.1997C31.0279 19.1532 30.9937 19.1079 30.9595 19.0623C30.9131 19.0005 30.8678 18.9392 30.8242 18.8788C30.792 18.8346 30.7606 18.7907 30.7301 18.7471C30.6874 18.6864 30.6458 18.6263 30.6056 18.5667C30.578 18.526 30.55 18.4852 30.5233 18.4448C30.4825 18.3829 30.4426 18.3217 30.4033 18.2607C30.3793 18.2236 30.3551 18.1863 30.3317 18.1493C30.2896 18.0829 30.2485 18.0167 30.2078 17.9509C30.1884 17.9199 30.1687 17.8885 30.1496 17.8572C30.0918 17.7631 30.0342 17.6691 29.977 17.5747C29.1944 16.2211 28.2164 14.9906 27.0745 13.9231C25.9739 12.8154 24.7146 11.8772 23.3384 11.1397C22.0486 10.4512 20.8697 9.57289 19.8406 8.53444C18.7703 7.53674 17.8552 6.38458 17.1257 5.11643C17.0356 4.96853 16.9436 4.81863 16.8495 4.66702C16.8296 4.63511 16.8099 4.60319 16.7897 4.57099C16.6936 4.41824 16.5916 4.26207 16.4836 4.10192C16.4611 4.06829 16.438 4.03466 16.4146 4.00075C16.3021 3.83689 16.181 3.66818 16.0482 3.49235C16.0259 3.46328 16.002 3.43308 15.9795 3.40372C15.8356 3.21649 15.6814 3.02385 15.5064 2.81924L15.5019 2.81354C15.5301 2.78276 15.5583 2.75312 15.5871 2.72434ZM18.5052 16.4898C14.4603 12.4446 12.9322 7.04202 14.7926 3.78616C14.8065 3.80326 14.8213 3.82064 14.835 3.83746C14.9604 3.99192 15.0775 4.14124 15.1844 4.28516C15.2046 4.31223 15.2229 4.33845 15.2425 4.36523C15.3389 4.49718 15.4295 4.62599 15.5144 4.75166C15.5295 4.77446 15.5457 4.79726 15.5606 4.81977C15.6543 4.96027 15.7427 5.09819 15.8284 5.23527C15.8473 5.26519 15.8655 5.29483 15.884 5.32446C15.9661 5.45698 16.047 5.58921 16.1282 5.72286C16.9096 7.07536 17.8868 8.30532 19.0279 9.37227C20.1285 10.4797 21.3878 11.4178 22.7639 12.1553C24.0537 12.8441 25.2327 13.7221 26.2617 14.7606C27.3329 15.7592 28.2491 16.9122 28.9798 18.1812C29.0696 18.3288 29.1613 18.4778 29.2551 18.6289C29.277 18.6642 29.2987 18.6993 29.3212 18.7346C29.419 18.8896 29.5218 19.0481 29.6321 19.2108C29.6544 19.2436 29.678 19.2772 29.7008 19.3105C29.8151 19.4761 29.9362 19.646 30.0716 19.8241L30.0889 19.848C30.2263 20.0278 30.3819 20.2182 30.5478 20.4145C30.5691 20.4396 30.5848 20.4618 30.6067 20.4875C27.2939 21.8585 22.2504 20.2341 18.5052 16.4898ZM12.8399 18.6534C18.5676 18.6534 23.4233 21.3783 24.3433 24.9767C24.3205 24.9742 24.2971 24.9719 24.2749 24.9696C24.0628 24.9459 23.8611 24.9197 23.673 24.8898C23.6479 24.8858 23.6245 24.8813 23.5997 24.8773C23.4268 24.8488 23.2618 24.8177 23.103 24.7849C23.0714 24.7784 23.0386 24.7724 23.0076 24.7656C22.8403 24.7299 22.6787 24.6923 22.52 24.6536C22.4784 24.6433 22.4365 24.633 22.3952 24.6225C22.2438 24.5846 22.0936 24.5464 21.9423 24.5071C20.4377 24.0802 18.878 23.8776 17.314 23.9061C15.7521 23.8773 14.1944 24.0802 12.692 24.5085C11.2859 24.912 9.82713 25.1024 8.36463 25.0733C6.90127 25.1024 5.44191 24.912 4.03498 24.5088C3.8905 24.4712 3.7443 24.4336 3.59612 24.3962C3.55565 24.386 3.51518 24.376 3.47415 24.3657C3.31627 24.3267 3.1544 24.2885 2.9857 24.2517C2.95919 24.2458 2.93127 24.2403 2.90419 24.2346C2.74831 24.2016 2.58559 24.17 2.41603 24.14C2.38468 24.1346 2.35476 24.1286 2.32284 24.1232C2.13561 24.0916 1.93698 24.0631 1.72838 24.0369C1.70729 24.0343 1.68962 24.0309 1.66825 24.0283C3.145 20.8753 7.68154 18.6534 12.8399 18.6534ZM1.28211 25.16L1.30405 25.1625C1.52975 25.1856 1.73807 25.2135 1.9367 25.2437C1.96491 25.2483 1.99483 25.252 2.02276 25.2566C2.21427 25.2873 2.39437 25.321 2.56849 25.3569C2.60354 25.364 2.63888 25.3711 2.67336 25.3788C2.8415 25.4147 3.00422 25.4521 3.16352 25.4911C3.20028 25.5002 3.23648 25.5093 3.27295 25.5185C3.42941 25.5578 3.58472 25.5977 3.74089 25.6384C5.24385 26.0662 6.8021 26.2691 8.36463 26.2406C9.92658 26.2694 11.4843 26.0662 12.9867 25.6382C14.3927 25.2343 15.8515 25.044 17.314 25.0733C18.7791 25.0443 20.2402 25.2343 21.6491 25.637C21.7525 25.6638 21.8565 25.6906 21.9614 25.7174C22.0013 25.7276 22.0421 25.7376 22.0823 25.7476C22.1541 25.7658 22.2262 25.7838 22.2997 25.8014C22.3424 25.8117 22.3866 25.822 22.4302 25.8322C22.5029 25.8493 22.5764 25.8661 22.6513 25.8827C22.6978 25.8929 22.7451 25.9029 22.7927 25.9129C22.8674 25.9288 22.9437 25.9442 23.0215 25.9593C23.0717 25.969 23.1224 25.9787 23.1737 25.9881C23.2541 26.0026 23.337 26.0169 23.4208 26.0306C23.4732 26.0391 23.5254 26.0477 23.5792 26.0559C23.6699 26.0699 23.7645 26.0824 23.8602 26.0953C23.9118 26.1021 23.9622 26.1092 24.0158 26.1155C24.1275 26.1289 24.2446 26.1409 24.3638 26.1525C24.4068 26.1565 24.447 26.1614 24.4912 26.1654L24.5122 26.1676C24.5125 26.181 24.5125 26.1947 24.5125 26.2081C24.5114 26.5826 24.4669 26.9556 24.38 27.3198L24.3564 27.3169C24.1346 27.2939 23.93 27.2662 23.7345 27.2363C23.7043 27.2315 23.6727 27.2275 23.6431 27.2226C23.4547 27.1921 23.2772 27.1588 23.1059 27.1234C23.0688 27.116 23.0321 27.1083 22.9956 27.1007C22.8303 27.065 22.6696 27.028 22.5126 26.9895C22.4747 26.9801 22.437 26.9704 22.3994 26.961C22.245 26.9223 22.0919 26.8829 21.9375 26.8427C20.4345 26.4147 18.8766 26.2118 17.314 26.2406C15.7521 26.2118 14.1944 26.4147 12.692 26.843C11.2859 27.2466 9.82713 27.4369 8.36463 27.4079C6.89985 27.4366 5.43877 27.2466 4.03014 26.8442C3.92441 26.8168 3.81811 26.7892 3.71096 26.7618C3.67933 26.7538 3.64656 26.7459 3.61436 26.7376C3.53713 26.7182 3.45933 26.6988 3.37982 26.6795C3.33593 26.6689 3.29062 26.6587 3.24588 26.6481C3.17578 26.6316 3.1051 26.6153 3.033 26.5994C2.98342 26.5883 2.93241 26.5777 2.8814 26.5669C2.81101 26.5521 2.73919 26.5375 2.66624 26.5233C2.61152 26.5125 2.55624 26.5022 2.49981 26.4919C2.42629 26.4785 2.35049 26.4657 2.27383 26.4529C2.21455 26.4432 2.15528 26.4332 2.09372 26.4241C2.01478 26.4119 1.93214 26.4007 1.84921 26.3899C1.78538 26.3814 1.7224 26.3725 1.65628 26.3646C1.56481 26.3537 1.46848 26.344 1.37216 26.3343C1.30947 26.3281 1.24934 26.321 1.18408 26.3153L1.16926 26.3138C1.16812 26.2785 1.16726 26.2432 1.16726 26.2081C1.16783 25.8556 1.20631 25.5042 1.28211 25.16Z" fill="black"/>
</svg>
